<svg width="600" height="124" viewBox="0 0 600 124" fill="none" xmlns="http://www.w3.org/2000/svg">
<path d="M25.8226 52.7197C21.0869 52.7197 16.7778 51.7191 12.8953 49.7181C8.97019 47.7383 5.83436 44.758 3.48781 40.7771C1.1626 36.7963 0 31.9 0 26.0884C0 21.2348 0.885286 16.8175 2.65586 12.8366C4.42643 8.89837 7.01829 5.77968 10.4314 3.48058C13.8659 1.16019 18.015 0 22.8788 0C25.3533 0 27.5719 0.585419 29.5344 1.75626C31.5183 2.90581 32.9476 4.36403 33.8222 6.13094L35.1341 0.989891H45.0856V21.8415H34.8781V20.7877C34.8781 18.0841 34.2488 15.8702 32.9902 14.1459C31.753 12.4215 29.9077 11.5594 27.4545 11.5594C25.812 11.5594 24.2974 12.1874 22.9108 13.4434C21.5455 14.7206 20.4682 16.3917 19.679 18.4567C18.8897 20.5003 18.495 22.6078 18.495 24.7792C18.495 29.0581 19.5616 32.4109 21.6948 34.8378C23.8281 37.2433 26.7506 38.4461 30.4624 38.4461C33.0862 38.4461 35.5181 38.0097 37.758 37.1369C40.0192 36.2641 41.8751 35.3274 43.3257 34.3269L44.0297 34.9336V48.5366C41.3205 50.0906 38.4619 51.1763 35.4541 51.7936C32.4463 52.411 29.2358 52.7197 25.8226 52.7197Z" fill="#9A6D4A"/>
<path d="M75.1 52.7197C69.7883 52.7197 65.1912 51.5808 61.3087 49.3029C57.4476 47.0251 54.5038 43.8958 52.4772 39.915C50.472 35.9341 49.4694 31.3891 49.4694 26.28C49.4694 20.9793 50.472 16.3598 52.4772 12.4215C54.4824 8.46197 57.4049 5.40715 61.2447 3.25706C65.1059 1.08569 69.7243 0 75.1 0C80.4544 0 85.0621 1.07504 88.9233 3.22513C92.7631 5.3965 95.6856 8.46197 97.6908 12.4215C99.7174 16.3811 100.731 21.0006 100.731 26.28C100.731 31.3891 99.728 35.9341 97.7228 39.915C95.7176 43.8958 92.7737 47.0251 88.8913 49.3029C85.0301 51.5808 80.433 52.7197 75.1 52.7197ZM75.1 41.3838C77.4039 41.3838 79.1638 39.9895 80.3797 37.2007C81.617 34.412 82.2356 30.6866 82.2356 26.0245C82.2356 21.4902 81.6383 17.9032 80.4437 15.2635C79.2704 12.6238 77.4892 11.3039 75.1 11.3039C72.6895 11.3039 70.8976 12.6238 69.7243 15.2635C68.551 17.9032 67.9644 21.4902 67.9644 26.0245C67.9644 30.6866 68.5723 34.412 69.7883 37.2007C71.0042 39.9895 72.7748 41.3838 75.1 41.3838Z" fill="#9A6D4A"/>
<path d="M136.121 40.5536V51.7936H107.482V40.5536H113.658V12.2299H107.482V0.989891H149.496V21.5221H140.249L138.233 12.2299H130.041V21.8415H137.177V30.016H130.041V40.5536H136.121Z" fill="#9A6D4A"/>
<path d="M182.006 40.5536V51.7936H153.368V40.5536H159.544V12.2299H153.368V0.989891H195.382V21.5221H186.134L184.118 12.2299H175.927V21.8415H183.062V30.016H175.927V40.5536H182.006Z" fill="#9A6D4A"/>
<path d="M242.227 30.1438V51.7936H199.253V40.5536H205.429V12.2299H199.253V0.989891H242.227V21.2028H234.036L230.964 12.2299H221.812V20.5322H230.004V28.8984H221.812V40.5536H230.964L234.036 30.1438H242.227Z" fill="#9A6D4A"/>
<path d="M288.625 30.1438V51.7936H245.651V40.5536H251.827V12.2299H245.651V0.989891H288.625V21.2028H280.433L277.361 12.2299H268.21V20.5322H276.401V28.8984H268.21V40.5536H277.361L280.433 30.1438H288.625Z" fill="#9A6D4A"/>
<path d="M329.518 40.5536V51.7936H308.016V40.5536H314.191V12.2299H308.016V0.989891H335.47L345.358 25.4498L355.149 0.989891H380.748V12.2299H374.604V40.5536H380.748V51.7936H354.093V40.5536H358.221V21.586L346.958 51.7936H337.71L324.399 20.8516V40.5536H329.518Z" fill="#C68B5E"/>
<path d="M405.386 40.5536V51.7936H382.924V40.5536H387.979L396.747 12.2299H390.059V0.989891H421.77L433.129 40.5536H438.153V51.7936H409.514V40.5536H413.674L412.298 35.1252H400.747L399.307 40.5536H405.386ZM410.762 27.3976L407.05 11.8468L402.379 27.3976H410.762Z" fill="#C68B5E"/>
<path d="M468.935 51.7936H442.344V40.5536H447.464V12.2299H442.344V0.989891H467.911V12.2299H463.847V23.7893L472.295 12.2299V0.989891H492.23V12.2299H487.814L477.671 24.5237V24.9708C481.126 24.9708 483.836 25.5669 485.798 26.759C487.761 27.9298 488.742 29.9735 488.742 32.8899V38.0629C488.742 38.7228 488.923 39.3082 489.286 39.8192C489.67 40.3088 490.193 40.5536 490.854 40.5536H494.502V51.7936H482.79C475.623 51.7936 472.039 48.5259 472.039 41.9905V36.4344C472.039 35.3487 471.687 34.2843 470.983 33.2412C470.279 32.1768 469.447 31.6446 468.487 31.6446H463.847V40.5536H468.935V51.7936Z" fill="#C68B5E"/>
<path d="M542.307 30.1438V51.7936H499.333V40.5536H505.509V12.2299H499.333V0.989891H542.307V21.2028H534.116L531.044 12.2299H521.892V20.5322H530.084V28.8984H521.892V40.5536H531.044L534.116 30.1438H542.307Z" fill="#C68B5E"/>
<path d="M573.377 51.7936H546.787V40.5536H551.907V12.2299H546.787V0.989891H579.489C584.779 0.989891 588.662 2.05429 591.136 4.18309C593.632 6.31188 594.88 9.84569 594.88 14.7845C594.88 18.0841 593.952 20.628 592.096 22.4162C590.241 24.2044 587.606 25.4072 584.193 26.0245C587.265 26.5142 589.473 27.6637 590.816 29.4732C592.182 31.2827 592.864 33.5392 592.864 36.2428V40.362H600V51.7936H589.697C587.499 51.7936 585.729 51.7191 584.385 51.5701C583.041 51.3998 581.974 51.0166 581.185 50.4206C580.417 49.8032 579.777 48.8453 579.265 47.5467C578.497 45.5882 578.113 42.3205 578.113 37.7436C578.113 35.1252 577.687 33.188 576.833 31.932C575.98 30.6547 574.423 30.016 572.161 30.016H568.29V40.5536H573.377V51.7936ZM568.29 12.2299V22.7675H572.673C574.999 22.7675 576.727 22.3524 577.857 21.5221C578.988 20.6919 579.553 19.2337 579.553 17.1475C579.553 15.6147 578.966 14.412 577.793 13.5392C576.641 12.6663 575.148 12.2299 573.313 12.2299H568.29Z" fill="#C68B5E"/>
<path d="M164.836 91.6308C164.825 94.8847 164.432 97.8398 163.657 100.496C162.882 103.141 161.505 105.609 159.523 107.9C157.542 110.191 154.831 112.217 151.389 113.977L149.347 111.187C152.313 109.649 154.67 107.945 156.419 106.074C158.168 104.193 159.407 102.117 160.138 99.8486C160.879 97.5797 161.25 94.9954 161.25 92.0956V91.6308H164.836ZM163.475 94.6191H151.073V91.6308H163.475V94.6191ZM150.027 102.887L149.496 99.7324L161.433 99.0185V101.824L150.027 102.887ZM174.614 118.642H170.945V88.6591H174.614V118.642ZM172.838 103.401H164.77V100.38H172.838V103.401ZM203.269 118.642H199.534V88.6591H203.269V118.642ZM195.965 94.6025H178.948V91.5976H195.965V94.6025ZM178.151 108.548C181.637 108.537 184.991 108.47 188.212 108.349C191.443 108.227 194.47 108 197.293 107.668L197.508 110.407C194.642 110.872 191.676 111.182 188.61 111.337C185.544 111.481 182.18 111.564 178.516 111.586L178.151 108.548ZM185.423 109.345H181.837V93.8886H185.423V109.345ZM193.076 109.345H189.457V93.8886H193.076V109.345ZM219.622 110.955H207.835V91.913H219.622V110.955ZM211.288 108.033H216.153V94.8183H211.288V108.033ZM232.804 118.642H229.251V88.6591H232.804V118.642ZM224.653 102.687H217.796V99.7158H224.653V102.687ZM226.628 117.23H223.125V89.1738H226.628V117.23ZM260.579 118.725H256.844V88.6591H260.579V118.725ZM244.409 90.8505C245.914 90.8505 247.259 91.2822 248.443 92.1454C249.628 93.0087 250.552 94.2483 251.216 95.8642C251.88 97.469 252.212 99.3284 252.212 101.442C252.212 103.578 251.88 105.449 251.216 107.054C250.552 108.658 249.628 109.898 248.443 110.772C247.259 111.636 245.914 112.067 244.409 112.067C242.893 112.067 241.543 111.636 240.358 110.772C239.174 109.898 238.245 108.658 237.569 107.054C236.894 105.449 236.562 103.578 236.573 101.442C236.562 99.3284 236.894 97.469 237.569 95.8642C238.245 94.2483 239.174 93.0087 240.358 92.1454C241.543 91.2822 242.893 90.8505 244.409 90.8505ZM244.409 94.1708C243.557 94.1708 242.804 94.4586 242.151 95.0341C241.509 95.6096 241.011 96.4508 240.657 97.5576C240.314 98.6533 240.143 99.9482 240.143 101.442C240.143 102.959 240.314 104.265 240.657 105.36C241.011 106.456 241.509 107.292 242.151 107.867C242.804 108.443 243.557 108.725 244.409 108.714C245.25 108.725 245.992 108.443 246.634 107.867C247.276 107.292 247.774 106.456 248.128 105.36C248.482 104.265 248.659 102.959 248.659 101.442C248.659 99.9371 248.482 98.6422 248.128 97.5576C247.774 96.4619 247.276 95.6262 246.634 95.0507C245.992 94.4641 245.25 94.1708 244.409 94.1708ZM279.655 91.6308C279.644 94.8847 279.251 97.8398 278.476 100.496C277.702 103.141 276.324 105.609 274.342 107.9C272.361 110.191 269.65 112.217 266.208 113.977L264.166 111.187C267.132 109.649 269.489 107.945 271.238 106.074C272.987 104.193 274.226 102.117 274.957 99.8486C275.698 97.5797 276.069 94.9954 276.069 92.0956V91.6308H279.655ZM278.294 94.6191H265.892V91.6308H278.294V94.6191ZM264.846 102.887L264.315 99.7324L276.252 99.0185V101.824L264.846 102.887ZM289.433 118.642H285.764V88.6591H289.433V118.642ZM287.657 103.401H279.589V100.38H287.657V103.401ZM315.018 93.9218H301.919V90.9003H315.018V93.9218ZM309.639 105.261H305.97V97.7236H309.639V105.261ZM317.192 92.8759C317.181 94.4033 317.132 95.8255 317.043 97.1425C316.966 98.4485 316.777 99.8984 316.479 101.492L312.826 101.177C313.136 99.5829 313.335 98.1884 313.424 96.9931C313.512 95.7978 313.568 94.4475 313.59 92.9423V92.6601V90.9003H317.192V92.6601V92.8759ZM324.381 111.138H320.596V88.6591H324.381V111.138ZM328.266 101.127H322.837V98.0224H328.266V101.127ZM325.327 118.11H304.592V115.089H325.327V118.11ZM308.311 116.052H304.592V109.145H308.311V116.052ZM300.126 103.883C303.712 103.872 307.049 103.805 310.137 103.684C313.225 103.562 316.13 103.307 318.853 102.92L319.052 105.593C316.263 106.102 313.33 106.439 310.253 106.605C307.176 106.76 303.911 106.838 300.458 106.838L300.126 103.883ZM354.148 118.725H350.479V88.6591H354.148V118.725ZM333.429 108.564C336.219 108.575 338.753 108.509 341.033 108.365C343.313 108.21 345.665 107.934 348.089 107.535L348.421 110.557C346.008 110.966 343.639 111.248 341.315 111.403C338.991 111.547 336.362 111.619 333.429 111.619H330.806V108.564H333.429ZM344.918 102.521H334.608V109.71H330.806V99.5995H341.166V94.2704H330.773V91.2656H344.918V102.521ZM367.862 97.1591C367.862 99.3837 367.513 101.547 366.816 103.65C366.13 105.753 365.145 107.629 363.861 109.278C362.577 110.927 361.088 112.156 359.395 112.964L357.22 110.059C358.759 109.328 360.114 108.271 361.288 106.888C362.461 105.493 363.357 103.949 363.977 102.256C364.608 100.562 364.929 98.8635 364.94 97.1591V93.2079H367.862V97.1591ZM368.625 97.1591C368.614 98.7529 368.908 100.347 369.505 101.94C370.103 103.523 370.966 104.967 372.095 106.273C373.235 107.579 374.574 108.592 376.113 109.311L374.038 112.217C372.344 111.42 370.867 110.241 369.605 108.681C368.343 107.109 367.375 105.322 366.7 103.318C366.025 101.315 365.687 99.262 365.687 97.1591V93.2079H368.625V97.1591ZM374.901 94.6523H358.382V91.6308H374.901V94.6523ZM381.359 118.642H377.673V88.6591H381.359V118.642ZM385.991 103.451H380.529V100.347H385.991V103.451ZM421.42 115.039H393.994V112.001H421.42V115.039ZM409.45 112.748H405.814V104.879H409.45V112.748ZM418.249 105.46H396.999V90.9999H418.249V105.46ZM400.635 102.555H414.63V93.9384H400.635V102.555ZM447.053 105.709H426.002V102.737H447.053V105.709ZM450.124 114.873H422.699V111.818H450.124V114.873ZM446.804 94.2704H429.671V103.999H426.002V91.2656H446.804V94.2704Z" fill="#B09886"/>
</svg>
