<svg width="40" height="41" viewBox="0 0 40 41" fill="none" xmlns="http://www.w3.org/2000/svg">
<g id="precision_manufacturing">
<path id="Vector" d="M33.2146 14.7636L27.2146 17.5636L23.3313 13.9136V11.5803L27.2146 7.93029L33.2146 10.7303C33.848 11.0303 34.5813 10.747 34.8813 10.1303C35.1813 9.49696 34.898 8.76362 34.2813 8.46362L27.748 5.41363C27.1146 5.11363 26.3646 5.24696 25.8646 5.74696L22.9646 8.41363C22.6646 8.01363 22.198 7.74696 21.6646 7.74696C20.748 7.74696 19.998 8.49696 19.998 9.41363V11.0803H14.698C13.898 8.83029 11.6313 7.29696 8.99797 7.86363C7.06464 8.28029 5.41464 9.94696 5.06464 11.9136C4.69797 14.1136 5.8313 16.0303 7.5313 17.047L11.798 31.0803H6.66464V36.0803H28.3313V31.0803H22.298L14.0146 15.697C14.298 15.297 14.5313 14.8803 14.698 14.4136H19.998V16.0803C19.998 16.997 20.748 17.747 21.6646 17.747C22.198 17.747 22.6646 17.4803 22.9646 17.0803L25.8646 19.747C26.3646 20.247 27.1146 20.3803 27.748 20.0803L34.2813 17.0303C34.9146 16.7303 35.1813 15.997 34.8813 15.3636C34.5813 14.747 33.848 14.4636 33.2146 14.7636ZM9.99797 14.4136C9.0813 14.4136 8.3313 13.6636 8.3313 12.747C8.3313 11.8303 9.0813 11.0803 9.99797 11.0803C10.9146 11.0803 11.6646 11.8303 11.6646 12.747C11.6646 13.6636 10.9146 14.4136 9.99797 14.4136Z" fill="#A8A8A8"/>
</g>
</svg>
