<svg width="40" height="41" viewBox="0 0 40 41" fill="none" xmlns="http://www.w3.org/2000/svg">
<g id="blender">
<path id="Vector" d="M29.3833 25.8843L32.5 5.66763H25.8333V4.00096H19.1667V5.66763H10.8333C9 5.66763 7.5 7.16763 7.5 9.00096V15.6676C7.5 17.501 9 19.001 10.8333 19.001H14.55L15.6167 25.8843C13.7333 27.4176 12.5 29.7176 12.5 32.3343V34.001C12.5 35.8343 14 37.3343 15.8333 37.3343H29.1667C31 37.3343 32.5 35.8343 32.5 34.001V32.3343C32.5 29.7176 31.2667 27.4176 29.3833 25.8843ZM10.8333 15.6676V9.00096H13.0167L14.05 15.6676H10.8333ZM22.5 32.3343C21.5833 32.3343 20.8333 31.5843 20.8333 30.6676C20.8333 29.751 21.5833 29.001 22.5 29.001C23.4167 29.001 24.1667 29.751 24.1667 30.6676C24.1667 31.5843 23.4167 32.3343 22.5 32.3343ZM26.3167 24.001H18.7L16.3833 9.00096H28.6167L26.3167 24.001Z" fill="#A8A8A8"/>
</g>
</svg>
