<svg width="112" height="143" viewBox="0 0 112 143" fill="none" xmlns="http://www.w3.org/2000/svg">
<g clip-path="url(#clip0_604_3366)">
<path d="M108.036 11.61H100.417V3.47944C100.417 1.55753 98.8417 0 96.9137 0H14.0216C12.0863 0 10.518 1.56468 10.518 3.47944V11.61H3.95683C1.77698 11.61 0 13.3748 0 15.5396V34.5944C0 36.7592 1.77698 38.5239 3.95683 38.5239H11.6547L12.3525 46.6259C9.3813 47.5619 7.45324 49.4338 7.73381 51.5129L17.2086 121.559C17.3453 122.588 18.0144 123.524 19.0432 124.288L19.9496 134.827C20.3453 139.413 24.6043 143.007 29.6475 143.007H84.1799C89.3525 143.007 93.6187 139.313 93.8921 134.598L94.4748 124.595C95.8058 123.752 96.6619 122.652 96.777 121.43L103.194 51.3843C103.374 49.4624 101.662 47.7405 99.0216 46.7831L99.5036 38.5239H108.029C110.209 38.5239 111.986 36.7592 111.986 34.5944V15.5396C111.986 13.3748 110.209 11.61 108.029 11.61H108.036ZM90.3741 134.391C90.2086 137.249 87.4892 139.492 84.187 139.492H29.6547C26.4317 139.492 23.7194 137.306 23.482 134.519L22.741 125.896C23.8058 126.146 24.964 126.289 26.1871 126.289H87.813C88.8849 126.289 89.9137 126.174 90.8705 125.974L90.3813 134.384L90.3741 134.391ZM53.5683 90.1868C57.9137 96.2097 58.8561 102.418 55.295 109.034C54.4389 110.628 53.3525 111.199 51.4245 111.128C45.2302 110.906 41.2734 107.691 38.9281 103.061C33.9137 93.1661 33.9928 83.1065 39.2734 73.2969C41.7914 68.61 45.9065 65.4521 52.8345 65.2306C52.0935 67.5955 51.6043 69.5817 50.8489 71.4821C48.1799 78.1552 49.3741 84.3568 53.5755 90.1868H53.5683ZM58.7626 91.2085C52.0863 83.5137 52.5468 75.4117 55.8849 66.831C56.6835 64.7805 57.777 64.5018 59.7914 64.9662C64.2014 65.9879 67.4532 68.4314 69.5827 71.8751C76.0719 82.3777 75.8345 92.9375 69.1439 103.283C66.9137 106.727 63.5971 109.234 58.7122 110.356C59.482 108.227 60.0144 106.634 60.6331 105.062C62.5612 100.161 62.3309 95.3167 58.7626 91.2014V91.2085ZM95.5324 46.0401C95.1007 46.0044 94.6691 45.9758 94.223 45.9758H16.705C16.4173 45.9758 16.1295 45.9901 15.8489 46.0043L15.2014 38.5239H95.9712L95.5324 46.0401Z" fill="#C5AF96"/>
</g>
<defs>
<clipPath id="clip0_604_3366">
<rect width="112" height="143" fill="white"/>
</clipPath>
</defs>
</svg>
