<svg width="100" height="100" viewBox="0 0 100 100" fill="none" xmlns="http://www.w3.org/2000/svg">
<g id="Icon Set">
<g id="Group">
<g id="Group_2">
<path id="Vector" d="M18.0391 15.3895C15.2011 15.3964 12.4812 16.5381 10.4744 18.565C8.46763 20.5918 7.33722 23.3389 7.33043 26.2053V73.7948C7.33043 79.7478 12.1451 84.6105 18.0391 84.6105H82.2913C88.1854 84.6105 93 79.7478 93 73.7948V26.2053C93 20.2523 88.1854 15.3895 82.2913 15.3895H18.0391ZM18.0391 19.7158H82.2913C85.8894 19.7158 88.7165 22.5712 88.7165 26.2053V28.3685H11.6139V26.2053C11.6139 22.5712 14.441 19.7158 18.0391 19.7158ZM11.6139 32.6948H88.7165V45.6737H11.6139V32.6948ZM11.6139 50H88.7165V73.7948C88.7165 77.4289 85.8894 80.2842 82.2913 80.2842H18.0391C14.441 80.2842 11.6139 77.4289 11.6139 73.7948V50Z" fill="black"/>
<path id="Vector_2" d="M52.3071 71.6315C51.7391 71.6315 51.1943 71.8594 50.7927 72.2651C50.391 72.6708 50.1654 73.221 50.1654 73.7947C50.1654 74.3684 50.391 74.9186 50.7927 75.3243C51.1943 75.73 51.7391 75.9579 52.3071 75.9579H56.5906C57.1586 75.9579 57.7034 75.73 58.105 75.3243C58.5067 74.9186 58.7323 74.3684 58.7323 73.7947C58.7323 73.221 58.5067 72.6708 58.105 72.2651C57.7034 71.8594 57.1586 71.6315 56.5906 71.6315H52.3071ZM65.1576 71.6315C64.5895 71.6315 64.0448 71.8594 63.6431 72.2651C63.2415 72.6708 63.0158 73.221 63.0158 73.7947C63.0158 74.3684 63.2415 74.9186 63.6431 75.3243C64.0448 75.73 64.5895 75.9579 65.1576 75.9579H69.441C70.0091 75.9579 70.5538 75.73 70.9555 75.3243C71.3571 74.9186 71.5828 74.3684 71.5828 73.7947C71.5828 73.221 71.3571 72.6708 70.9555 72.2651C70.5538 71.8594 70.0091 71.6315 69.441 71.6315H65.1576ZM78.008 71.6315C77.44 71.6315 76.8952 71.8594 76.4935 72.2651C76.0919 72.6708 75.8662 73.221 75.8662 73.7947C75.8662 74.3684 76.0919 74.9186 76.4935 75.3243C76.8952 75.73 77.44 75.9579 78.008 75.9579H82.2915C82.8595 75.9579 83.4043 75.73 83.8059 75.3243C84.2076 74.9186 84.4332 74.3684 84.4332 73.7947C84.4332 73.221 84.2076 72.6708 83.8059 72.2651C83.4043 71.8594 82.8595 71.6315 82.2915 71.6315H78.008ZM18.0393 54.3263C17.4713 54.3263 16.9265 54.5542 16.5248 54.9599C16.1232 55.3655 15.8975 55.9157 15.8975 56.4895C15.8975 57.0632 16.1232 57.6134 16.5248 58.019C16.9265 58.4247 17.4713 58.6526 18.0393 58.6526H39.4567C40.0247 58.6526 40.5695 58.4247 40.9711 58.019C41.3728 57.6134 41.5984 57.0632 41.5984 56.4895C41.5984 55.9157 41.3728 55.3655 40.9711 54.9599C40.5695 54.5542 40.0247 54.3263 39.4567 54.3263H18.0393Z" fill="black"/>
</g>
</g>
</g>
</svg>
