<svg width="100" height="100" viewBox="0 0 100 100" fill="none" xmlns="http://www.w3.org/2000/svg">
<g id="Icon Set" clip-path="url(#clip0_19_91)">
<g id="Group">
<path id="Vector" d="M25.7067 12.5782C23.6131 10.4844 23.6131 7.09653 25.7067 5.00278C26.8508 3.85864 26.8508 2.00396 25.7067 0.859814C24.5627 -0.284326 22.7078 -0.284326 21.5637 0.859814C17.1906 5.23286 17.1906 12.3481 21.5637 16.7211C23.6572 18.8147 23.6572 22.2028 21.5637 24.2965C20.4195 25.4407 20.4195 27.2954 21.5637 28.4395C22.7076 29.5836 24.5627 29.5836 25.7067 28.4395C30.0797 24.0665 30.0797 16.9512 25.7067 12.5782ZM43.2842 12.5782C41.1906 10.4844 41.1906 7.09653 43.2842 5.00278C44.4283 3.85864 44.4283 2.00396 43.2842 0.859814C42.1403 -0.284326 40.2854 -0.284326 39.1412 0.859814C34.7682 5.23286 34.7682 12.3481 39.1412 16.7211C41.2348 18.8147 41.2348 22.2028 39.1412 24.2965C37.9971 25.4407 37.9971 27.2954 39.1412 28.4395C40.2852 29.5836 42.1404 29.5836 43.2842 28.4395C47.6572 24.0665 47.6572 16.9512 43.2842 12.5782ZM60.8617 12.5782C58.7682 10.4844 58.7682 7.09653 60.8617 5.00278C62.0059 3.85864 62.0059 2.00396 60.8617 0.859814C59.7178 -0.284326 57.8627 -0.284326 56.7188 0.859814C52.3457 5.23286 52.3457 12.3481 56.7188 16.7211C58.8123 18.8147 58.8123 22.2028 56.7188 24.2965C55.5746 25.4407 55.5746 27.2954 56.7188 28.4395C57.8627 29.5836 59.718 29.5836 60.8617 28.4395C65.235 24.0665 65.235 16.9512 60.8617 12.5782ZM73.6336 76.3665C88.1721 76.3665 100 64.5383 100 50.0001C100 45.154 96.0574 41.2112 91.2111 41.2112H82.3658C82.4031 40.2372 82.4223 39.2604 82.4223 38.2815C82.4223 36.6635 81.1106 35.3518 79.4926 35.3518H2.93283C1.31486 35.3518 0.00314293 36.6635 0.00314293 38.2815C0.00314293 54.2956 5.1424 71.095 15.8529 82.4208H2.93283C0.760369 82.4208 -0.661115 84.7131 0.312323 86.6604C2.31644 90.6691 5.39831 94.0399 9.21193 96.3942C13.0239 98.7507 17.4171 99.9987 21.8986 99.9981H60.527C69.6635 99.9981 78.0231 94.8403 82.1133 86.6602C83.0848 84.717 81.6703 82.4206 79.4928 82.4206H66.5723C68.3082 80.585 69.9342 78.561 71.4334 76.3661H73.6336V76.3665ZM81.9133 47.0704H91.2113C92.8268 47.0704 94.141 48.3846 94.141 50.0001C94.141 60.8665 85.6449 69.7844 74.9471 70.4641C78.6094 63.3772 80.9461 55.3756 81.9133 47.0704ZM73.9533 88.2411C70.5529 91.9368 65.7369 94.1393 60.5268 94.1393H21.8986C16.6887 94.1393 11.8729 91.9368 8.47228 88.2411H73.9533ZM57.844 82.421H24.5815C13.7926 74.2588 6.65724 58.3793 5.92463 41.1723L76.5008 41.2114C75.8535 56.4153 69.7924 73.3815 57.844 82.421Z" fill="#212325"/>
</g>
</g>
<defs>
<clipPath id="clip0_19_91">
<rect width="100" height="100" fill="white"/>
</clipPath>
</defs>
</svg>
