<svg width="100" height="100" viewBox="0 0 100 100" fill="none" xmlns="http://www.w3.org/2000/svg">
<g id="Icon Set">
<g id="Group">
<path id="Vector" d="M35.2999 83.3334C34.9012 83.3324 34.5111 83.2189 34.175 83.0061C33.839 82.7933 33.5709 82.49 33.4022 82.1317C33.2335 81.7733 33.1711 81.3748 33.2223 80.9825C33.2735 80.5903 33.4362 80.2206 33.6913 79.9167L38.1769 74.5751C39.7027 72.7585 40.6618 70.5402 40.9371 68.1915C41.2123 65.8428 40.7917 63.4654 39.7267 61.35C39.5293 60.959 39.4612 60.5162 39.5321 60.0846C39.6029 59.653 39.8092 59.2545 40.1215 58.9459L47.7781 51.35C49.2487 49.8864 50.0745 47.9041 50.0745 45.8376C50.0745 43.771 49.2487 41.7887 47.7781 40.3251L24.1279 61.9542C23.718 62.3288 23.1749 62.5266 22.618 62.5039C22.0611 62.4812 21.5361 62.24 21.1585 61.8334C20.7809 61.4267 20.5816 60.8879 20.6044 60.3354C20.6273 59.783 20.8704 59.2622 21.2803 58.8876L44.9305 37.2625C45.7258 36.5293 46.7773 36.1315 47.8628 36.1533C48.9483 36.1751 49.9827 36.6147 50.7475 37.3792C53.0068 39.6244 54.2757 42.6672 54.2757 45.8396C54.2757 49.0121 53.0068 52.0549 50.7475 54.3L44.1073 60.8875C45.1702 63.6058 45.4803 66.5567 45.0054 69.434C44.5306 72.3113 43.288 75.0101 41.4067 77.2501L36.9127 82.5834C36.7161 82.8185 36.4696 83.0076 36.1908 83.1372C35.912 83.2669 35.6078 83.3338 35.2999 83.3334Z" fill="black"/>
<path id="Vector_2" d="M43.6999 100H14.2999C10.8265 100 7.99991 97.1958 7.99991 93.75V66.2666C8.0131 61.4446 9.14468 56.6903 11.307 52.3717C13.4694 48.0532 16.6045 44.2862 20.4697 41.3625L29.2015 34.7958C29.6454 34.4615 30.205 34.3159 30.7571 34.3909C31.3093 34.4659 31.8088 34.7554 32.1457 35.1958C32.4827 35.6362 32.6295 36.1913 32.5539 36.739C32.4783 37.2868 32.1864 37.7823 31.7425 38.1166L23.0107 44.6833C19.6599 47.2165 16.9419 50.4809 15.0672 54.2237C13.1925 57.9665 12.2114 62.0872 12.1999 66.2666V93.75C12.1999 94.3025 12.4212 94.8324 12.815 95.2231C13.2088 95.6138 13.743 95.8333 14.2999 95.8333H43.6999C44.2569 95.8333 44.791 95.6138 45.1848 95.2231C45.5787 94.8324 45.7999 94.3025 45.7999 93.75V89.5916C45.7999 89.0391 46.0212 88.5092 46.415 88.1185C46.8088 87.7278 47.343 87.5083 47.8999 87.5083C52.5325 87.5083 56.2999 83.7708 56.2999 79.175V69.7916C56.2999 69.2391 56.5212 68.7092 56.915 68.3185C57.3088 67.9278 57.843 67.7083 58.3999 67.7083C58.9569 67.7083 59.491 67.9278 59.8848 68.3185C60.2787 68.7092 60.4999 69.2391 60.4999 69.7916V79.175C60.4965 82.128 59.4408 84.9848 57.5193 87.2402C55.5978 89.4957 52.9344 91.0045 49.9999 91.5V93.75C49.9999 97.1958 47.1733 100 43.6999 100Z" fill="black"/>
<path id="Vector_3" d="M81.4999 79.1667H73.0999C72.7097 79.1667 72.3272 79.0587 71.9955 78.8548C71.6638 78.6509 71.3961 78.3592 71.2225 78.0125L70.7815 77.1333C68.8201 73.25 64.8805 70.8333 60.4999 70.8333C56.1193 70.8333 52.1797 73.25 50.2225 77.1375L49.7815 78.0167C49.6054 78.362 49.3365 78.6522 49.0043 78.8552C48.6722 79.0582 48.29 79.166 47.8999 79.1667H39.4999C38.9429 79.1667 38.4088 78.9472 38.015 78.5565C37.6211 78.1658 37.3999 77.6359 37.3999 77.0833C37.3999 76.5308 37.6211 76.0009 38.015 75.6102C38.4088 75.2195 38.9429 75 39.4999 75H46.6063C49.3237 69.85 54.6199 66.6667 60.4999 66.6667C66.3799 66.6667 71.6761 69.85 74.3977 75H81.4999C84.9733 75 87.7999 72.1958 87.7999 68.75V10.4167C87.7999 6.97083 84.9733 4.16667 81.4999 4.16667H74.3935C71.6761 9.3125 66.3799 12.5 60.4999 12.5C54.6199 12.5 49.3237 9.3125 46.6021 4.16667H39.4999C36.0265 4.16667 33.1999 6.97083 33.1999 10.4167V52.7333C33.1999 53.2859 32.9786 53.8158 32.5848 54.2065C32.191 54.5972 31.6568 54.8167 31.0999 54.8167C30.5429 54.8167 30.0088 54.5972 29.615 54.2065C29.2211 53.8158 28.9999 53.2859 28.9999 52.7333V10.4167C28.9999 4.675 33.7123 2.0211e-07 39.4999 2.0211e-07H47.8999C48.2895 1.31743e-05 48.6715 0.107585 49.0031 0.310681C49.3346 0.513778 49.6027 0.804388 49.7773 1.15L50.2225 2.02917C52.1797 5.91667 56.1193 8.33333 60.4999 8.33333C64.8805 8.33333 68.8201 5.91667 70.7815 2.02917L71.2267 1.15C71.4002 0.804412 71.6674 0.513691 71.9983 0.310531C72.3292 0.107371 72.7107 -0.000170166 73.0999 2.0211e-07H81.4999C87.2875 2.0211e-07 91.9999 4.675 91.9999 10.4167V68.75C91.9999 74.4917 87.2875 79.1667 81.4999 79.1667Z" fill="black"/>
<path id="Vector_4" d="M35.2999 29.1667H31.0999C30.5429 29.1667 30.0088 28.9472 29.615 28.5565C29.2211 28.1658 28.9999 27.6359 28.9999 27.0833C28.9999 26.5308 29.2211 26.0009 29.615 25.6102C30.0088 25.2195 30.5429 25 31.0999 25H35.2999C35.8568 25 36.391 25.2195 36.7848 25.6102C37.1786 26.0009 37.3999 26.5308 37.3999 27.0833C37.3999 27.6359 37.1786 28.1658 36.7848 28.5565C36.391 28.9472 35.8568 29.1667 35.2999 29.1667ZM74.0659 29.1667H66.3127C65.7557 29.1667 65.2216 28.9472 64.8278 28.5565C64.4339 28.1658 64.2127 27.6359 64.2127 27.0833C64.2127 26.5308 64.4339 26.0009 64.8278 25.6102C65.2216 25.2195 65.7557 25 66.3127 25H74.0659C74.6228 25 75.157 25.2195 75.5508 25.6102C75.9446 26.0009 76.1659 26.5308 76.1659 27.0833C76.1659 27.6359 75.9446 28.1658 75.5508 28.5565C75.157 28.9472 74.6228 29.1667 74.0659 29.1667ZM54.6829 29.1667H46.9297C46.3727 29.1667 45.8386 28.9472 45.4447 28.5565C45.0509 28.1658 44.8297 27.6359 44.8297 27.0833C44.8297 26.5308 45.0509 26.0009 45.4447 25.6102C45.8386 25.2195 46.3727 25 46.9297 25H54.6829C55.2398 25 55.774 25.2195 56.1678 25.6102C56.5616 26.0009 56.7829 26.5308 56.7829 27.0833C56.7829 27.6359 56.5616 28.1658 56.1678 28.5565C55.774 28.9472 55.2398 29.1667 54.6829 29.1667ZM89.8999 29.1667H85.6999C85.1429 29.1667 84.6088 28.9472 84.2149 28.5565C83.8211 28.1658 83.5999 27.6359 83.5999 27.0833C83.5999 26.5308 83.8211 26.0009 84.2149 25.6102C84.6088 25.2195 85.1429 25 85.6999 25H89.8999C90.4568 25 90.991 25.2195 91.3848 25.6102C91.7786 26.0009 91.9999 26.5308 91.9999 27.0833C91.9999 27.6359 91.7786 28.1658 91.3848 28.5565C90.991 28.9472 90.4568 29.1667 89.8999 29.1667Z" fill="black"/>
</g>
</g>
</svg>
