<svg width="45" height="45" viewBox="0 0 45 45" fill="none" xmlns="http://www.w3.org/2000/svg">
<g id="icon 1">
<g id="Group">
<g id="Group_2">
<path id="Vector" d="M40.8333 20.1624H4.16667C3.41501 20.1624 2.79167 19.5266 2.79167 18.7599C2.79167 17.9932 3.41501 17.3574 4.16667 17.3574H40.8333C41.585 17.3574 42.2083 17.9932 42.2083 18.7599C42.2083 19.5266 41.585 20.1624 40.8333 20.1624Z" fill="white"/>
<path id="Vector_2" d="M21.675 39.7975H12.3067C5.01 39.7975 2.77333 37.5535 2.77333 30.1857V14.8143C2.77333 8.92379 4.00166 5.65129 10.5467 5.25859C11.0967 5.23989 11.6833 5.22119 12.3067 5.22119H32.675C39.9717 5.22119 42.2083 7.46519 42.2083 14.833V23.0797C42.2083 23.8464 41.585 24.4822 40.8333 24.4822C40.0817 24.4822 39.4583 23.8464 39.4583 23.0797V14.833C39.4583 9.05469 38.45 8.02619 32.675 8.02619H12.3067C11.72 8.02619 11.1883 8.04489 10.675 8.06359C6.69666 8.30669 5.52333 9.22299 5.52333 14.833V30.2044C5.52333 35.9827 6.53166 37.0112 12.3067 37.0112H21.675C22.4267 37.0112 23.05 37.647 23.05 38.4137C23.05 39.1804 22.445 39.7975 21.675 39.7975Z" fill="white"/>
<path id="Vector_3" d="M18.8333 31.3824H11.5C10.7483 31.3824 10.125 30.7466 10.125 29.9799C10.125 29.2132 10.7483 28.5774 11.5 28.5774H18.8333C19.585 28.5774 20.2083 29.2132 20.2083 29.9799C20.2083 30.7466 19.585 31.3824 18.8333 31.3824ZM33.5 42.6024C30.4567 42.6024 27.5967 40.9568 26.0567 38.2827C25.2317 36.9363 24.7917 35.3468 24.7917 33.7199C24.7917 28.8205 28.6967 24.8374 33.5 24.8374C38.3033 24.8374 42.2083 28.8205 42.2083 33.7199C42.2083 35.3468 41.7683 36.9363 40.9433 38.3014C39.4033 40.9568 36.5433 42.6024 33.5 42.6024ZM33.5 27.6424C30.2183 27.6424 27.5417 30.3726 27.5417 33.7199C27.5417 34.8232 27.835 35.9078 28.4033 36.8428C29.4667 38.6754 31.4283 39.7974 33.5 39.7974C35.0794 39.7944 36.5932 39.1532 37.71 38.0141C38.8267 36.875 39.4554 35.3308 39.4583 33.7199C39.4583 30.3726 36.7817 27.6424 33.5 27.6424Z" fill="white"/>
<path id="Vector_4" d="M32.455 36.9738C32.1067 36.9738 31.7583 36.8429 31.4833 36.5624L29.6683 34.7111C29.1367 34.1688 29.1367 33.2712 29.6683 32.7289C30.2 32.1866 31.08 32.1866 31.6117 32.7289L32.4917 33.6265L35.425 30.8589C35.975 30.3353 36.855 30.3727 37.3683 30.9337C37.8817 31.4947 37.845 32.3923 37.295 32.9159L33.39 36.5998C33.115 36.8429 32.785 36.9738 32.455 36.9738Z" fill="white"/>
</g>
</g>
</g>
</svg>
