<svg width="48" height="45" viewBox="0 0 48 45" fill="none" xmlns="http://www.w3.org/2000/svg">
<g id="home" clip-path="url(#clip0_47_1116)">
<path id="Vector" d="M19.3158 40.9229V28.1551H29.5301V40.9229C29.5301 42.3274 30.6792 43.4765 32.0836 43.4765H39.7443C41.1488 43.4765 42.2979 42.3274 42.2979 40.9229V23.0479H46.639C47.8136 23.0479 48.3754 21.5924 47.4817 20.8263L26.1338 1.59794C25.1635 0.729724 23.6824 0.729724 22.712 1.59794L1.36417 20.8263C0.495955 21.5924 1.0322 23.0479 2.20685 23.0479H6.54792V40.9229C6.54792 42.3274 7.69703 43.4765 9.10149 43.4765H16.7622C18.1667 43.4765 19.3158 42.3274 19.3158 40.9229Z" fill="#C68B5E"/>
</g>
<defs>
<clipPath id="clip0_47_1116">
<rect width="47.1429" height="44" fill="white" transform="translate(0.857178 0.21167)"/>
</clipPath>
</defs>
</svg>
