<svg width="110" height="151" viewBox="0 0 110 151" fill="none" xmlns="http://www.w3.org/2000/svg">
<g id="Group">
<g id="Touch Screen">
<path id="Vector" d="M65.7441 44.4342C66.2305 41.0203 66.0094 37.5427 65.0944 34.2178C64.1795 30.893 62.5903 27.7919 60.4257 25.1074C58.2611 22.4229 55.5674 20.2124 52.5121 18.6133C49.4568 17.0143 46.1052 16.0609 42.6657 15.8125C39.2262 15.564 35.7723 16.0258 32.5189 17.1691C29.2655 18.3124 26.2821 20.1128 23.7541 22.4584C21.2262 24.8039 19.2078 27.6444 17.8245 30.8032C16.4412 33.9621 15.7226 37.3718 15.7132 40.8202C15.7132 43.8057 15.8704 47.1055 19.0759 47.1055C19.5314 47.1107 19.9826 47.0167 20.3982 46.8302C20.8139 46.6436 21.184 46.369 21.4829 46.0252C21.7818 45.6814 22.0025 45.2768 22.1295 44.8393C22.2565 44.4017 22.2869 43.9419 22.2185 43.4915C21.8375 40.8175 22.0354 38.0929 22.7988 35.5021C23.5622 32.9113 24.8733 30.5147 26.6433 28.4746C28.4133 26.4344 30.601 24.7984 33.0582 23.6771C35.5154 22.5559 38.1849 21.9756 40.8858 21.9756C43.5868 21.9756 46.2562 22.5559 48.7134 23.6771C51.1707 24.7984 53.3583 26.4344 55.1284 28.4746C56.8984 30.5147 58.2095 32.9113 58.9729 35.5021C59.7363 38.0929 59.9342 40.8175 59.5531 43.4915C59.5014 44.2768 59.7463 45.053 60.2394 45.6665C60.7324 46.28 61.4378 46.6862 62.2159 46.8047C62.994 46.9232 63.7882 46.7454 64.4416 46.3064C65.0949 45.8675 65.5597 45.1994 65.7441 44.4342Z" fill="#BFB3A1"/>
<path id="Vector_2" d="M40.8544 6.2511C46.1301 6.25144 51.3357 7.45927 56.0725 9.78207C60.8093 12.1049 64.9516 15.481 68.1821 19.6519C71.4127 23.8228 73.6457 28.6778 74.7102 33.8449C75.7747 39.0121 75.6425 44.3543 74.3236 49.4625C74.1152 50.271 74.2365 51.1291 74.6609 51.8481C75.0852 52.5671 75.7778 53.0881 76.5863 53.2965C77.3947 53.5049 78.2529 53.3835 78.9719 52.9592C79.6909 52.5349 80.2119 51.8423 80.4203 51.0338C81.9731 44.9982 82.1245 38.6874 80.863 32.5843C79.6014 26.4812 76.9603 20.7476 73.1418 15.8223C69.3233 10.8971 64.4286 6.91066 58.8323 4.16822C53.236 1.42578 47.0865 0 40.8544 0C34.6223 0 28.4727 1.42578 22.8765 4.16822C17.2802 6.91066 12.3855 10.8971 8.56697 15.8223C4.74847 20.7476 2.10737 26.4812 0.845807 32.5843C-0.415752 38.6874 -0.26433 44.9982 1.28848 51.0338C1.49686 51.8423 2.01786 52.5349 2.73688 52.9592C3.0929 53.1693 3.48682 53.3072 3.89615 53.3651C4.30548 53.423 4.7222 53.3997 5.12251 53.2965C5.52283 53.1933 5.89891 53.0123 6.22927 52.7638C6.55963 52.5153 6.83781 52.2041 7.04792 51.8481C7.25803 51.4921 7.39596 51.0982 7.45383 50.6888C7.51171 50.2795 7.48839 49.8628 7.38522 49.4625C6.0663 44.3543 5.93403 39.0121 6.99855 33.8449C8.06306 28.6778 10.2961 23.8228 13.5267 19.6519C16.7572 15.481 20.8995 12.1049 25.6363 9.78207C30.3731 7.45927 35.5787 6.25144 40.8544 6.2511Z" fill="#BFB3A1"/>
<path id="Vector_3" d="M91.1367 74.038C90.8961 71.9 90.1108 69.8596 88.856 68.112C87.6012 66.3643 85.9189 64.968 83.97 64.0567C82.0211 63.1453 79.8709 62.7494 77.7252 62.9068C75.5796 63.0642 73.5102 63.7697 71.7152 64.9557C71.1011 63.1969 70.1037 61.5966 68.7953 60.2705C67.4869 58.9444 65.9001 57.9257 64.1496 57.2881C62.3992 56.6505 60.529 56.41 58.6742 56.5838C56.8194 56.7576 55.0264 57.3415 53.425 58.2933V44.4971C53.5305 41.9959 52.8869 39.5202 51.5765 37.3871C50.2661 35.2541 48.3486 33.5609 46.0699 32.5245C43.7911 31.488 41.2548 31.1556 38.7859 31.5698C36.317 31.984 34.0279 33.1259 32.2121 34.8492C26.9953 39.7831 28.2838 42.1715 28.2838 78.5319C19.7987 72.2466 9.42794 76.0178 9.42794 84.8172V109.958C9.42794 120.794 13.7322 131.185 21.3939 138.847C29.0556 146.508 39.4471 150.813 50.2823 150.813H69.1382C79.9735 150.813 90.3649 146.508 98.0266 138.847C105.688 131.185 109.993 120.794 109.993 109.958V85.3515C110.07 83.1089 109.545 80.8866 108.473 78.9152C107.401 76.9439 105.821 75.2954 103.897 74.1409C101.973 72.9865 99.7747 72.3681 97.5309 72.3499C95.287 72.3318 93.0792 72.9147 91.1367 74.038ZM103.707 109.958C103.707 114.498 102.813 118.993 101.076 123.187C99.3386 127.382 96.7923 131.192 93.5823 134.402C90.3722 137.612 86.5613 140.159 82.3672 141.896C78.1731 143.633 73.6779 144.527 69.1382 144.527H50.2823C41.114 144.527 32.3212 140.885 25.8383 134.402C19.3553 127.919 15.7132 119.127 15.7132 109.958V84.8172C15.7132 80.4175 21.9985 80.9518 25.424 84.3144C28.8495 87.677 28.2838 90.6625 28.2838 109.958C28.2838 110.792 28.6149 111.591 29.2043 112.181C29.7936 112.77 30.593 113.101 31.4265 113.101C32.2599 113.101 33.0593 112.77 33.6486 112.181C34.238 111.591 34.5691 110.792 34.5691 109.958V43.9628C34.5678 43.1075 34.7411 42.261 35.0784 41.475C35.4156 40.6889 35.9098 39.98 36.5305 39.3916C37.1513 38.8032 37.8856 38.3477 38.6885 38.053C39.4914 37.7583 40.3461 37.6305 41.2001 37.6776C42.8636 37.8656 44.3962 38.6702 45.4957 39.9326C46.5952 41.195 47.1817 42.8235 47.1397 44.4971V91.1025C47.1397 91.936 47.4708 92.7353 48.0601 93.3247C48.6495 93.9141 49.4488 94.2452 50.2823 94.2452C51.1158 94.2452 51.9152 93.9141 52.5045 93.3247C53.0939 92.7353 53.425 91.936 53.425 91.1025V69.104C53.425 67.437 54.0872 65.8384 55.2659 64.6596C56.4446 63.4809 58.0433 62.8187 59.7103 62.8187C61.3772 62.8187 62.9759 63.4809 64.1546 64.6596C65.3334 65.8384 65.9956 67.437 65.9956 69.104V91.1025C65.9956 91.936 66.3267 92.7353 66.916 93.3247C67.5054 93.9141 68.3047 94.2452 69.1382 94.2452C69.9717 94.2452 70.771 93.9141 71.3604 93.3247C71.9497 92.7353 72.2808 91.936 72.2808 91.1025V75.3893C72.2808 73.7223 72.943 72.1236 74.1218 70.9449C75.3005 69.7662 76.8992 69.104 78.5661 69.104C80.2331 69.104 81.8318 69.7662 83.0105 70.9449C84.1892 72.1236 84.8514 73.7223 84.8514 75.3893V91.1025C84.8514 91.936 85.1825 92.7353 85.7719 93.3247C86.3612 93.9141 87.1606 94.2452 87.9941 94.2452C88.8276 94.2452 89.6269 93.9141 90.2163 93.3247C90.8056 92.7353 91.1367 91.936 91.1367 91.1025C91.1367 84.283 90.7282 82.4917 93.0852 80.2604C94.0078 79.3708 95.1804 78.7846 96.4457 78.5803C97.7109 78.376 99.0084 78.5634 100.164 79.1173C101.32 79.6713 102.279 80.5653 102.912 81.6796C103.545 82.7938 103.823 84.075 103.707 85.3515V109.958Z" fill="#BFB3A1"/>
</g>
</g>
</svg>
