<svg width="336" height="30" viewBox="0 0 336 30" fill="none" xmlns="http://www.w3.org/2000/svg">
<path d="M14.4607 29.9333C11.8087 29.9333 9.39555 29.3665 7.22137 28.2328C5.02331 27.1112 3.26724 25.4228 1.95318 23.1676C0.651059 20.9124 0 18.1386 0 14.8462C0 12.0965 0.49576 9.59407 1.48728 7.33884C2.4788 5.10774 3.93024 3.34095 5.84161 2.03846C7.76492 0.723921 10.0884 0.0666504 12.8121 0.0666504C14.1979 0.0666504 15.4402 0.398301 16.5393 1.0616C17.6503 1.71284 18.4506 2.53895 18.9404 3.53994L19.6751 0.627441H25.2479V12.4402H19.5318V11.8433C19.5318 10.3116 19.1793 9.0574 18.4745 8.08053C17.7817 7.10367 16.7483 6.61524 15.3745 6.61524C14.4547 6.61524 13.6065 6.97101 12.83 7.68255C12.0655 8.40615 11.4622 9.35287 11.0202 10.5227C10.5782 11.6805 10.3572 12.8744 10.3572 14.1045C10.3572 16.5286 10.9545 18.428 12.1491 19.8029C13.3437 21.1657 14.9803 21.847 17.0589 21.847C18.5283 21.847 19.8901 21.5998 21.1445 21.1054C22.4108 20.6109 23.4501 20.0803 24.2624 19.5134L24.6566 19.8571V27.5635C23.1395 28.4439 21.5387 29.0589 19.8543 29.4087C18.1699 29.7584 16.372 29.9333 14.4607 29.9333Z" fill="#9A6D4A"/>
<path d="M42.056 29.9333C39.0814 29.9333 36.5071 29.2881 34.3329 27.9977C32.1707 26.7072 30.5221 24.9344 29.3872 22.6792C28.2643 20.424 27.7028 17.8491 27.7028 14.9547C27.7028 11.9518 28.2643 9.33478 29.3872 7.10367C30.5102 4.86051 32.1468 3.1299 34.2971 1.91183C36.4593 0.681711 39.0456 0.0666504 42.056 0.0666504C45.0545 0.0666504 47.6348 0.675681 49.797 1.89374C51.9473 3.12387 53.5839 4.86051 54.7068 7.10367C55.8417 9.34684 56.4092 11.9639 56.4092 14.9547C56.4092 17.8491 55.8477 20.424 54.7248 22.6792C53.6018 24.9344 51.9533 26.7072 49.7791 27.9977C47.6169 29.2881 45.0425 29.9333 42.056 29.9333ZM42.056 23.5113C43.3462 23.5113 44.3317 22.7214 45.0126 21.1415C45.7055 19.5617 46.0519 17.4512 46.0519 14.81C46.0519 12.2412 45.7175 10.2091 45.0485 8.71369C44.3914 7.21824 43.394 6.47052 42.056 6.47052C40.7061 6.47052 39.7026 7.21824 39.0456 8.71369C38.3886 10.2091 38.06 12.2412 38.06 14.81C38.06 17.4512 38.4005 19.5617 39.0814 21.1415C39.7624 22.7214 40.7539 23.5113 42.056 23.5113Z" fill="#9A6D4A"/>
<path d="M76.2276 23.041V29.4087H60.1901V23.041H63.6484V6.99513H60.1901V0.627441H83.7178V12.2593H78.5392L77.4103 6.99513H72.823V12.4402H76.8189V17.0713H72.823V23.041H76.2276Z" fill="#9A6D4A"/>
<path d="M101.924 23.041V29.4087H85.886V23.041H89.3444V6.99513H85.886V0.627441H109.414V12.2593H104.235L103.106 6.99513H98.5189V12.4402H102.515V17.0713H98.5189V23.041H101.924Z" fill="#9A6D4A"/>
<path d="M135.647 17.1436V29.4087H111.582V23.041H115.04V6.99513H111.582V0.627441H135.647V12.0784H131.06L129.34 6.99513H124.215V11.6985H128.802V16.4381H124.215V23.041H129.34L131.06 17.1436H135.647Z" fill="#9A6D4A"/>
<path d="M161.63 17.1436V29.4087H137.564V23.041H141.023V6.99513H137.564V0.627441H161.63V12.0784H157.043L155.322 6.99513H150.197V11.6985H154.785V16.4381H150.197V23.041H155.322L157.043 17.1436H161.63Z" fill="#9A6D4A"/>
<path d="M184.53 23.041V29.4087H172.489V23.041H175.947V6.99513H172.489V0.627441H187.863L193.4 14.4844L198.883 0.627441H213.219V6.99513H209.778V23.041H213.219V29.4087H198.292V23.041H200.604V12.2955L194.296 29.4087H189.118L181.663 11.8794V23.041H184.53Z" fill="#C68B5E"/>
<path d="M227.016 23.041V29.4087H214.437V23.041H217.268L222.178 6.99513H218.433V0.627441H236.191L242.552 23.041H245.365V29.4087H229.328V23.041H231.657L230.887 19.9657H224.418L223.612 23.041H227.016ZM230.027 15.5879L227.948 6.77805L225.332 15.5879H230.027Z" fill="#C68B5E"/>
<path d="M262.604 29.4087H247.713V23.041H250.58V6.99513H247.713V0.627441H262.03V6.99513H259.754V13.5437L264.485 6.99513V0.627441H275.649V6.99513H273.176L267.496 13.9598V14.2131C269.431 14.2131 270.948 14.5507 272.047 15.2261C273.146 15.8894 273.695 17.0472 273.695 18.6994V21.63C273.695 22.0038 273.797 22.3355 274 22.6249C274.215 22.9023 274.508 23.041 274.878 23.041H276.921V29.4087H270.363C266.349 29.4087 264.342 27.5575 264.342 23.855V20.7074C264.342 20.0923 264.145 19.4893 263.75 18.8984C263.356 18.2954 262.89 17.9939 262.353 17.9939H259.754V23.041H262.604V29.4087Z" fill="#C68B5E"/>
<path d="M303.692 17.1436V29.4087H279.627V23.041H283.085V6.99513H279.627V0.627441H303.692V12.0784H299.105L297.384 6.99513H292.26V11.6985H296.847V16.4381H292.26V23.041H297.384L299.105 17.1436H303.692Z" fill="#C68B5E"/>
<path d="M321.091 29.4087H306.201V23.041H309.068V6.99513H306.201V0.627441H324.514C327.477 0.627441 329.651 1.23044 331.036 2.43644C332.434 3.64245 333.133 5.64441 333.133 8.44234C333.133 10.3116 332.613 11.7528 331.574 12.7659C330.535 13.7789 329.059 14.4603 327.148 14.81C328.868 15.0874 330.105 15.7386 330.857 16.7637C331.622 17.7889 332.004 19.0672 332.004 20.5988V22.9324H336V29.4087H330.23C329 29.4087 328.008 29.3665 327.256 29.2821C326.503 29.1856 325.906 28.9685 325.464 28.6308C325.034 28.2811 324.675 27.7384 324.388 27.0027C323.958 25.8932 323.743 24.042 323.743 21.4491C323.743 19.9657 323.504 18.8682 323.027 18.1567C322.549 17.4331 321.677 17.0713 320.41 17.0713H318.242V23.041H321.091V29.4087ZM318.242 6.99513V12.9648H320.697C321.999 12.9648 322.967 12.7297 323.6 12.2593C324.233 11.789 324.55 10.9629 324.55 9.781C324.55 8.91268 324.221 8.23128 323.564 7.73682C322.919 7.24236 322.083 6.99513 321.056 6.99513H318.242Z" fill="#C68B5E"/>
</svg>
