<svg width="120" height="61" viewBox="0 0 120 61" fill="none" xmlns="http://www.w3.org/2000/svg">
<rect x="0.5" y="0.92334" width="119" height="59" rx="29.5" fill="#212325"/>
<path d="M44.2549 42.6118H42.1982V19.1187H44.2549V42.6118ZM48.1836 30.1401H43.7803V28.3999H48.1836V30.1401ZM28.9883 34.9917C31.291 34.9829 33.2642 34.9214 34.9077 34.8071C36.5513 34.6841 38.2256 34.4644 39.9307 34.1479L40.1943 35.9409C38.4541 36.2573 36.749 36.4683 35.0791 36.5737C33.418 36.6792 31.3877 36.7319 28.9883 36.7319H27.1426V34.9917H28.9883ZM38.085 23.1265H29.1992V35.7827H27.1426V21.4126H38.085V23.1265ZM60.1279 19.646C61.8242 19.646 63.292 19.8218 64.5312 20.1733C65.7793 20.5249 66.7373 21.0391 67.4053 21.7158C68.0732 22.3838 68.4072 23.1792 68.4072 24.1021C68.4072 25.0161 68.0732 25.8027 67.4053 26.4619C66.7373 27.1211 65.7793 27.6221 64.5312 27.9648C63.292 28.3076 61.8242 28.479 60.1279 28.479C58.4316 28.479 56.9595 28.3076 55.7114 27.9648C54.4722 27.6221 53.5142 27.1211 52.8374 26.4619C52.1606 25.8027 51.8223 25.0161 51.8223 24.1021C51.8223 23.1792 52.1606 22.3838 52.8374 21.7158C53.5142 21.0391 54.4722 20.5249 55.7114 20.1733C56.9595 19.8218 58.4316 19.646 60.1279 19.646ZM60.1279 21.3071C58.8711 21.3071 57.7769 21.417 56.8452 21.6367C55.9224 21.8564 55.2104 22.1772 54.7095 22.5991C54.2085 23.021 53.958 23.522 53.958 24.1021C53.958 24.6646 54.2085 25.1479 54.7095 25.5522C55.2104 25.9565 55.9224 26.2729 56.8452 26.5015C57.7769 26.73 58.8711 26.8442 60.1279 26.8442C61.376 26.8442 62.4658 26.73 63.3975 26.5015C64.3291 26.2729 65.0454 25.9565 65.5464 25.5522C66.0474 25.1479 66.2979 24.6646 66.2979 24.1021C66.2979 23.522 66.0474 23.021 65.5464 22.5991C65.0454 22.1772 64.3291 21.8564 63.3975 21.6367C62.4658 21.417 61.376 21.3071 60.1279 21.3071ZM68.1963 42.2427H52.0596V34.5435H68.1963V42.2427ZM54.1162 40.5552H66.166V36.2046H54.1162V40.5552ZM70.8066 32.2231H49.4492V30.5093H70.8066V32.2231Z" fill="white"/>
<path d="M89.295 35.0133L93.875 30.4233L89.295 25.8333L90.705 24.4233L96.705 30.4233L90.705 36.4233L89.295 35.0133Z" fill="#C68B5E"/>
<rect x="0.5" y="0.92334" width="119" height="59" rx="29.5" stroke="#9A6D4A"/>
</svg>
