<svg width="120" height="61" viewBox="0 0 120 61" fill="none" xmlns="http://www.w3.org/2000/svg">
<rect x="0.5" y="0.92334" width="119" height="59" rx="29.5" fill="#DACABD"/>
<path d="M30.705 35.0133L26.125 30.4233L30.705 25.8333L29.295 24.4233L23.295 30.4233L29.295 36.4233L30.705 35.0133Z" fill="black"/>
<path d="M68.4414 42.6118H66.3584V19.1187H68.4414V42.6118ZM55.9697 20.938C57.1299 20.938 58.1626 21.272 59.0679 21.9399C59.9731 22.6079 60.6807 23.5615 61.1904 24.8008C61.7002 26.04 61.9551 27.4771 61.9551 29.1118C61.9551 30.7466 61.7002 32.1792 61.1904 33.4097C60.6807 34.6401 59.9731 35.5894 59.0679 36.2573C58.1626 36.9253 57.1299 37.2593 55.9697 37.2593C54.8096 37.2593 53.7769 36.9253 52.8716 36.2573C51.9663 35.5894 51.2588 34.6401 50.749 33.4097C50.2393 32.1792 49.9844 30.7466 49.9844 29.1118C49.9844 27.4771 50.2393 26.04 50.749 24.8008C51.2588 23.5615 51.9663 22.6079 52.8716 21.9399C53.7769 21.272 54.8096 20.938 55.9697 20.938ZM55.9697 22.7837C55.1963 22.7837 54.5063 23.0474 53.8999 23.5747C53.2935 24.1021 52.8232 24.8447 52.4893 25.8027C52.1553 26.7607 51.9883 27.8638 51.9883 29.1118C51.9883 30.3687 52.1553 31.4761 52.4893 32.4341C52.8232 33.3833 53.2935 34.1172 53.8999 34.6357C54.5063 35.1543 55.1963 35.4136 55.9697 35.4136C56.752 35.4136 57.4419 35.1543 58.0396 34.6357C58.646 34.1172 59.1162 33.3833 59.4502 32.4341C59.7842 31.4761 59.9512 30.3687 59.9512 29.1118C59.9512 27.855 59.7842 26.752 59.4502 25.8027C59.1162 24.8447 58.646 24.1021 58.0396 23.5747C57.4419 23.0474 56.752 22.7837 55.9697 22.7837ZM90.9854 27.3452H84.9736V25.6313H90.9854V27.3452ZM91.8818 36.3364H89.7988V19.145H91.8818V36.3364ZM92.541 42.0581H76.8262V40.3179H92.541V42.0581ZM78.9092 41.1616H76.8262V34.7808H78.9092V41.1616ZM80.2275 23.9702C80.2275 25.3677 79.9507 26.6904 79.397 27.9385C78.8433 29.1777 78.0654 30.2676 77.0635 31.208C76.0703 32.1396 74.9277 32.8472 73.6357 33.3306L72.5547 31.6431C73.6973 31.2388 74.7212 30.6455 75.6265 29.8633C76.5317 29.0811 77.2393 28.1802 77.749 27.1606C78.2588 26.1323 78.5137 25.0688 78.5137 23.9702V22.0454H80.2275V23.9702ZM80.5967 23.9702C80.5967 24.9722 80.8428 25.9478 81.335 26.897C81.8271 27.8462 82.5083 28.6899 83.3784 29.4282C84.2485 30.1665 85.2461 30.729 86.3711 31.1157L85.29 32.7769C84.0332 32.3198 82.9214 31.6475 81.9546 30.7598C80.9966 29.8721 80.2495 28.8438 79.7134 27.6748C79.1772 26.5059 78.9092 25.271 78.9092 23.9702V22.0454H80.5967V23.9702ZM85.8438 22.7573H73.2139V21.0435H85.8438V22.7573Z" fill="#212325"/>
<rect x="0.5" y="0.92334" width="119" height="59" rx="29.5" stroke="#9A6D4A"/>
</svg>
