<svg width="67" height="34" viewBox="0 0 67 34" fill="none" xmlns="http://www.w3.org/2000/svg">
<rect y="0.92334" width="67" height="33" rx="16.5" fill="#9A6D4A"/>
<path d="M25.1699 13.5874H22.4453V12.4448H25.1699V13.5874ZM25.1699 17.0679H22.4453V15.9077H25.1699V17.0679ZM15.6777 12.1987C15.6777 13.189 15.499 14.1177 15.1416 14.9849C14.7842 15.8462 14.2773 16.5962 13.6211 17.2349C12.9707 17.8677 12.2148 18.3511 11.3535 18.6851L10.5801 17.5776C11.3711 17.2905 12.0625 16.8804 12.6543 16.3472C13.252 15.8081 13.7148 15.1812 14.043 14.4663C14.3711 13.7515 14.5352 12.9956 14.5352 12.1987V10.5991H15.6777V12.1987ZM15.8887 12.3042C15.8887 13.0015 16.0527 13.6753 16.3809 14.3257C16.709 14.9702 17.1689 15.5415 17.7607 16.0396C18.3584 16.5317 19.0352 16.9038 19.791 17.1558L19.0176 18.228C18.1914 17.9292 17.4561 17.4868 16.8115 16.9009C16.1729 16.3091 15.6748 15.6177 15.3174 14.8267C14.96 14.0298 14.7812 13.189 14.7812 12.3042V10.5991H15.8887V12.3042ZM22.8496 20.2319H21.4785V9.72021H22.8496V20.2319ZM18.6309 19.9155C18.625 20.8472 18.3496 21.6851 17.8047 22.4292C17.2656 23.1675 16.5449 23.7769 15.6426 24.2573C14.7461 24.7437 13.7617 25.0835 12.6895 25.2769L12.127 24.2046C13.0703 24.0464 13.9434 23.7681 14.7461 23.3696C15.5547 22.9653 16.2021 22.4673 16.6885 21.8755C17.1748 21.2778 17.418 20.6245 17.418 19.9155V19.4409H18.6309V19.9155ZM18.7891 19.9155C18.7891 20.6245 19.0322 21.2778 19.5186 21.8755C20.0049 22.4673 20.6523 22.9653 21.4609 23.3696C22.2695 23.7681 23.1484 24.0464 24.0977 24.2046L23.5352 25.2769C22.457 25.0835 21.4697 24.7437 20.5732 24.2573C19.6768 23.7769 18.959 23.1675 18.4199 22.4292C17.8867 21.6851 17.623 20.8472 17.6289 19.9155V19.4409H18.7891V19.9155ZM33.9766 25.3823H32.623V19.6343H33.9766V25.3823ZM40.4277 20.3374H26.1895V19.1772H40.4277V20.3374ZM33.8359 12.814C33.8359 13.6812 33.5459 14.4751 32.9658 15.1958C32.3857 15.9165 31.6182 16.5171 30.6631 16.9976C29.7139 17.4722 28.6914 17.7944 27.5957 17.9644L27.0859 16.8569C28.0234 16.728 28.917 16.4644 29.7666 16.0659C30.6162 15.6675 31.3047 15.1841 31.832 14.6157C32.3594 14.0474 32.623 13.4468 32.623 12.814V12.3921H33.8359V12.814ZM33.9941 12.814C33.9941 13.4409 34.2549 14.0415 34.7764 14.6157C35.2979 15.1841 35.9834 15.6675 36.833 16.0659C37.6826 16.4644 38.5762 16.728 39.5137 16.8569L39.0039 17.9644C37.9082 17.8003 36.8857 17.4751 35.9365 16.9888C34.9932 16.5024 34.2344 15.8989 33.6602 15.1782C33.0859 14.4517 32.7988 13.6636 32.7988 12.814V12.3921H33.9941V12.814ZM39.0566 12.7964H27.5781V11.6714H39.0566V12.7964ZM33.9766 12.0581H32.623V9.72021H33.9766V12.0581ZM53.8398 25.3472H52.4688V9.72021H53.8398V25.3472ZM56.3711 17.2437H53.4883V16.0835H56.3711V17.2437ZM49.7969 11.4077C49.791 12.9253 49.5391 14.3608 49.041 15.7144C48.5488 17.062 47.7695 18.3071 46.7031 19.4497C45.6367 20.5864 44.2773 21.562 42.625 22.3765L41.8516 21.2866C43.2988 20.5659 44.5117 19.7192 45.4902 18.7466C46.4746 17.7681 47.21 16.6841 47.6963 15.4946C48.1885 14.3052 48.4375 13.019 48.4434 11.6362V11.4077H49.7969ZM49.1465 12.5679H42.5723V11.4077H49.1465V12.5679Z" fill="#FFFBF8"/>
</svg>
