<svg width="140" height="57" viewBox="0 0 140 57" fill="none" xmlns="http://www.w3.org/2000/svg">
<g id="LOGO">
<g id="COFFEE MAKER">
<path d="M12.3807 25.8872C10.1101 25.8872 8.04414 25.4015 6.18268 24.4301C4.30078 23.4691 2.79729 22.0224 1.67224 20.09C0.557413 18.1576 0 15.7808 0 12.9597C0 10.6037 0.424452 8.45942 1.27336 6.52702C2.12226 4.61529 3.36493 3.1014 5.00138 1.98537C6.64805 0.858993 8.63735 0.295807 10.9693 0.295807C12.1557 0.295807 13.2194 0.579983 14.1603 1.14834C15.1115 1.70636 15.7968 2.41421 16.2161 3.27191L16.8451 0.776323H21.6164V10.8982H16.7224V10.3867C16.7224 9.07428 16.4207 7.99957 15.8172 7.16254C15.224 6.32551 14.3393 5.907 13.1631 5.907C12.3756 5.907 11.6494 6.21184 10.9846 6.82153C10.33 7.44155 9.81354 8.25275 9.43511 9.25512C9.05669 10.2472 8.86747 11.2702 8.86747 12.3242C8.86747 14.4013 9.37886 16.0288 10.4016 17.2069C11.4244 18.3746 12.8256 18.9584 14.6052 18.9584C15.8633 18.9584 17.0292 18.7466 18.1031 18.3229C19.1873 17.8992 20.0771 17.4446 20.7726 16.9589L21.1101 17.2534V23.8566C19.8112 24.611 18.4407 25.138 16.9985 25.4377C15.5564 25.7374 14.0172 25.8872 12.3807 25.8872Z" fill="#212325"/>
<path d="M36.0068 25.8872C33.4601 25.8872 31.2561 25.3343 29.3946 24.2286C27.5434 23.1229 26.1319 21.6039 25.1603 19.6715C24.1989 17.7391 23.7182 15.5328 23.7182 13.0527C23.7182 10.4797 24.1989 8.23725 25.1603 6.32551C26.1217 4.40345 27.5229 2.92056 29.3639 1.87686C31.2151 0.822825 33.4295 0.295807 36.0068 0.295807C38.574 0.295807 40.7832 0.817658 42.6344 1.86136C44.4754 2.9154 45.8766 4.40345 46.8381 6.32551C47.8097 8.24758 48.2955 10.49 48.2955 13.0527C48.2955 15.5328 47.8148 17.7391 46.8534 19.6715C45.892 21.6039 44.4805 23.1229 42.6191 24.2286C40.7679 25.3343 38.5638 25.8872 36.0068 25.8872ZM36.0068 20.3845C37.1114 20.3845 37.9552 19.7076 38.5382 18.3539C39.1314 17.0002 39.428 15.1918 39.428 12.9287C39.428 10.7277 39.1417 8.98644 38.5689 7.70506C38.0064 6.42369 37.1524 5.783 36.0068 5.783C34.8511 5.783 33.992 6.42369 33.4295 7.70506C32.8669 8.98644 32.5857 10.7277 32.5857 12.9287C32.5857 15.1918 32.8771 17.0002 33.4601 18.3539C34.0431 19.7076 34.892 20.3845 36.0068 20.3845Z" fill="#212325"/>
<path d="M65.2634 19.9815V25.4377H51.5326V19.9815H54.4935V6.23251H51.5326V0.776323H71.6762V10.7432H67.2424L66.2759 6.23251H62.3485V10.8982H65.7696V14.8663H62.3485V19.9815H65.2634Z" fill="#212325"/>
<path d="M87.2633 19.9815V25.4377H73.5325V19.9815H76.4935V6.23251H73.5325V0.776323H93.6761V10.7432H89.2424L88.2758 6.23251H84.3484V10.8982H87.7696V14.8663H84.3484V19.9815H87.2633Z" fill="#212325"/>
<path d="M116.136 14.9283V25.4377H95.5324V19.9815H98.4934V6.23251H95.5324V0.776323H116.136V10.5882H112.209L110.736 6.23251H106.348V10.2626H110.276V14.3238H106.348V19.9815H110.736L112.209 14.9283H116.136Z" fill="#212325"/>
<path d="M138.382 14.9283V25.4377H117.778V19.9815H120.739V6.23251H117.778V0.776323H138.382V10.5882H134.454L132.981 6.23251H128.594V10.2626H132.521V14.3238H128.594V19.9815H132.981L134.454 14.9283H138.382Z" fill="#212325"/>
<path d="M10.3096 50.7114V56.1676H0V50.7114H2.96095V36.9625H0V31.5063H13.1631L17.9037 43.3797L22.5983 31.5063H34.8716V36.9625H31.926V50.7114H34.8716V56.1676H22.092V50.7114H24.0711V41.5041L18.6708 56.1676H14.2371L7.85493 41.1476V50.7114H10.3096Z" fill="#6F4332"/>
<path d="M46.6846 50.7114V56.1676H35.9148V50.7114H38.3388L42.5424 36.9625H39.336V31.5063H54.5396L59.9859 50.7114H62.3945V56.1676H48.6637V50.7114H50.6581L49.9984 48.0763H44.4601L43.7697 50.7114H46.6846ZM49.262 44.3252L47.4824 36.7765L45.2425 44.3252H49.262Z" fill="#6F4332"/>
<path d="M77.1532 56.1676H64.4042V50.7114H66.8589V36.9625H64.4042V31.5063H76.6622V36.9625H74.7138V42.5737L78.764 36.9625V31.5063H88.3219V36.9625H86.2047L81.3414 42.9302V43.1472C82.9983 43.1472 84.2972 43.4365 85.2382 44.0152C86.1792 44.5836 86.6496 45.5756 86.6496 46.9913V49.5024C86.6496 49.8227 86.7366 50.1069 86.9104 50.3549C87.0945 50.5926 87.3451 50.7114 87.6622 50.7114H89.4111V56.1676H83.7961C80.3596 56.1676 78.6413 54.5814 78.6413 51.409V48.7119C78.6413 48.1848 78.4725 47.6682 78.135 47.1618C77.7975 46.6451 77.3986 46.3868 76.9384 46.3868H74.7138V50.7114H77.1532V56.1676Z" fill="#6F4332"/>
<path d="M112.332 45.6583V56.1676H91.7277V50.7114H94.6886V36.9625H91.7277V31.5063H112.332V41.3181H108.404L106.931 36.9625H102.544V40.9926H106.471V45.0537H102.544V50.7114H106.931L108.404 45.6583H112.332Z" fill="#6F4332"/>
<path d="M127.228 56.1676H114.479V50.7114H116.934V36.9625H114.479V31.5063H130.159C132.695 31.5063 134.556 32.023 135.743 33.0563C136.94 34.0897 137.538 35.8051 137.538 38.2025C137.538 39.8042 137.093 41.0391 136.203 41.9071C135.313 42.7752 134.05 43.359 132.414 43.6587C133.887 43.8964 134.945 44.4544 135.589 45.3328C136.244 46.2111 136.571 47.3065 136.571 48.6189V50.6184H139.993V56.1676H135.053C133.999 56.1676 133.15 56.1315 132.506 56.0591C131.861 55.9765 131.35 55.7904 130.972 55.5011C130.603 55.2014 130.297 54.7364 130.051 54.1061C129.683 53.1554 129.499 51.5691 129.499 49.3474C129.499 48.0763 129.294 47.136 128.885 46.5263C128.476 45.9063 127.729 45.5963 126.645 45.5963H124.789V50.7114H127.228V56.1676ZM124.789 36.9625V42.0776H126.891C128.006 42.0776 128.834 41.8761 129.376 41.4731C129.918 41.0701 130.189 40.3622 130.189 39.3495C130.189 38.6055 129.908 38.0217 129.345 37.598C128.793 37.1743 128.077 36.9625 127.198 36.9625H124.789Z" fill="#6F4332"/>
</g>
</g>
</svg>
