<svg width="40" height="41" viewBox="0 0 40 41" fill="none" xmlns="http://www.w3.org/2000/svg">
<g id="bakery_dining">
<path id="Vector" fill-rule="evenodd" clip-rule="evenodd" d="M32.1417 28.3126C30.125 26.8293 29.1083 26.0793 29.1083 26.0793C29.1083 26.0793 29.6417 25.0959 30.7083 23.1126C31.3417 22.1293 32.7417 22.1293 33.375 23.1126L34.725 25.2126C35.0417 25.7126 35.075 26.3459 34.825 26.8793L34.4583 27.6626C34.0417 28.5626 32.9417 28.8626 32.1417 28.3126ZM7.87499 28.3126C7.07499 28.8626 5.99166 28.5626 5.55833 27.6793L5.17499 26.8959C4.92499 26.3626 4.95833 25.7293 5.27499 25.2293L6.62499 23.1293C7.25833 22.1459 8.65833 22.1459 9.29166 23.1293C10.375 25.0959 10.9083 26.0793 10.9083 26.0793C10.9083 26.0793 9.89166 26.8293 7.87499 28.3126ZM25.6083 16.6959C25.7583 15.5626 26.825 14.9293 27.725 15.4459L30.375 16.9459C31.1417 17.3793 31.425 18.4626 30.975 19.2959L27.5083 26.0793H24.5083L25.6083 16.6959ZM14.3917 16.6959L15.5083 26.0793H12.5083L9.02499 19.2793C8.57499 18.4459 8.85833 17.3626 9.62499 16.9293L12.275 15.4293C13.1583 14.9293 14.2417 15.5626 14.3917 16.6959ZM23.0083 26.0793H17.0083L15.775 14.6126C15.6583 13.6293 16.3583 12.7459 17.2417 12.7459H22.7417C23.625 12.7459 24.3083 13.6293 24.2083 14.6126L23.0083 26.0793Z" fill="#A8A8A8"/>
</g>
</svg>
