<svg width="40" height="41" viewBox="0 0 40 41" fill="none" xmlns="http://www.w3.org/2000/svg">
<g id="perm_identity">
<path id="Vector" d="M20 10.5009C21.9333 10.5009 23.5 12.0676 23.5 14.0009C23.5 15.9342 21.9333 17.5009 20 17.5009C18.0667 17.5009 16.5 15.9342 16.5 14.0009C16.5 12.0676 18.0667 10.5009 20 10.5009ZM20 25.5009C24.95 25.5009 30.1667 27.9342 30.1667 29.0009V30.8342H9.83332V29.0009C9.83332 27.9342 15.05 25.5009 20 25.5009ZM20 7.33423C16.3167 7.33423 13.3333 10.3176 13.3333 14.0009C13.3333 17.6842 16.3167 20.6676 20 20.6676C23.6833 20.6676 26.6667 17.6842 26.6667 14.0009C26.6667 10.3176 23.6833 7.33423 20 7.33423ZM20 22.3342C15.55 22.3342 6.66666 24.5676 6.66666 29.0009V34.0009H33.3333V29.0009C33.3333 24.5676 24.45 22.3342 20 22.3342Z" fill="#A8A8A8"/>
</g>
</svg>
