<svg width="50" height="50" viewBox="0 0 50 50" fill="none" xmlns="http://www.w3.org/2000/svg">
<g id="image_search">
<path id="Vector" d="M37.0626 27.0833V41.6667H7.89591V12.5H18.3542C18.4584 11.0208 18.8126 9.625 19.3542 8.33333H7.89591C5.60425 8.33333 3.72925 10.2083 3.72925 12.5V41.6667C3.72925 43.9583 5.60425 45.8333 7.89591 45.8333H37.0626C39.3542 45.8333 41.2292 43.9583 41.2292 41.6667V31.25L37.0626 27.0833ZM33.9376 37.5H11.0209L16.7501 30.1458L20.8334 35.0625L26.5626 27.6875L33.9376 37.5ZM39.7709 18.5208C40.6876 17.0625 41.2292 15.375 41.2292 13.5417C41.2292 8.35416 37.0417 4.16666 31.8542 4.16666C26.6667 4.16666 22.4792 8.35416 22.4792 13.5417C22.4792 18.7292 26.6667 22.9167 31.8334 22.9167C33.6667 22.9167 35.3751 22.375 36.8126 21.4583L43.3126 27.9583L46.2709 25L39.7709 18.5208ZM31.8542 18.75C28.9792 18.75 26.6459 16.4167 26.6459 13.5417C26.6459 10.6667 28.9792 8.33333 31.8542 8.33333C34.7292 8.33333 37.0626 10.6667 37.0626 13.5417C37.0626 16.4167 34.7292 18.75 31.8542 18.75Z" fill="#848484"/>
</g>
</svg>
